<svg xmlns="http://www.w3.org/2000/svg" xmlns:xlink="http://www.w3.org/1999/xlink" width="400" height="400" viewBox="0, 0, 400,400">
	<g>
		<path d="M193.359 31.292 C 116.943 36.750,51.356 95.012,37.727 169.541 C 26.286 232.106,49.589 294.635,99.158 334.378 C 167.448 389.130,266.385 384.264,329.039 323.071 C 397.459 256.246,398.827 149.472,332.120 82.570 C 295.588 45.931,245.832 27.544,193.359 31.292 M248.828 105.656 C 281.216 106.753,302.118 131.579,302.116 168.945 C 302.114 196.645,288.344 216.566,263.086 225.408 C 253.857 228.638,253.681 230.406,261.415 242.188 C 263.460 245.303,268.557 253.213,272.741 259.766 C 276.926 266.318,281.970 274.188,283.950 277.254 C 291.234 288.531,291.629 291.137,286.275 292.599 C 282.871 293.528,252.561 292.576,250.302 291.469 C 246.859 289.781,244.191 285.956,220.566 248.828 C 191.589 203.290,189.844 200.377,189.844 197.534 C 189.844 193.481,190.350 193.397,215.039 193.376 C 242.228 193.353,246.488 192.888,253.696 189.157 C 269.479 180.988,270.519 154.785,255.395 146.346 C 248.194 142.327,246.206 142.190,194.997 142.189 C 149.870 142.187,150.123 142.198,148.249 140.241 C 146.048 137.944,146.101 136.968,149.240 121.874 C 152.421 106.576,152.963 105.873,161.914 105.463 C 167.490 105.208,240.370 105.369,248.828 105.656 M165.353 193.776 C 171.041 195.356,171.062 194.995,162.745 237.305 C 159.428 254.174,156.411 269.764,154.882 277.930 C 151.966 293.505,152.773 292.946,133.203 292.957 C 114.577 292.968,113.655 292.392,115.543 281.924 C 120.646 253.632,129.154 207.663,130.267 202.373 C 131.356 197.198,132.796 195.001,135.803 193.929 C 137.695 193.254,163.002 193.123,165.353 193.776 " stroke="none" fill="#58095d" fill-rule="evenodd"></path>
		<path d="
        M 161.914 105.463 C 152.963 105.873 152.421 106.576 149.24 121.874 C 146.101 136.968 146.048 137.944 148.249 140.241 C 150.123 142.198 149.87 142.187 194.997 142.189 C 246.206 142.19 248.194 142.327 255.395 146.346 C 270.519 154.785 269.479 180.988 253.696 189.157 C 246.488 192.888 242.228 193.353 215.039 193.376 C 183.783 193.403 184.723 191.951 200.093 216.45 C 224.705 255.679 244.134 285.744 246.786 288.702 C 250.072 292.368 249.841 292.325 268.359 292.719 C 293.648 293.257 294.037 292.872 283.95 277.254 C 281.97 274.188 276.926 266.318 272.741 259.766 C 268.557 253.213 263.46 245.303 261.415 242.188 C 253.681 230.406 253.857 228.638 263.086 225.408 C 294.475 214.42 308.991 183.754 299.613 148.242 C 292.586 121.633 274.572 106.528 248.828 105.656 C 240.37 105.369 167.49 105.208 161.914 105.463 M 135.803 193.929 C 132.796 195.001 131.356 197.198 130.267 202.373 C 129.154 207.663 120.646 253.632 115.543 281.924 C 113.655 292.392 114.577 292.968 133.203 292.957 C 152.773 292.946 151.966 293.505 154.882 277.93 C 156.411 269.764 159.428 254.174 162.745 237.305 C 171.062 194.995 171.041 195.356 165.353 193.776 C 163.002 193.123 137.695 193.254 135.803 193.929
        " stroke="none" fill="#ffffff" fill-rule="evenodd"></path>
	</g>
</svg>