<svg width="400" height="400" viewBox="0, 0, 400,400" xmlns="http://www.w3.org/2000/svg">
  <defs></defs>
  <g>
    <rect width="100%" height="100%" style="fill: rgb(88, 9, 93);"></rect>
    <path d="M 154.186 105.899 C 145.235 106.309 144.693 107.012 141.512 122.31 C 138.373 137.404 138.32 138.38 140.521 140.677 C 142.395 142.634 142.142 142.623 187.269 142.625 C 238.478 142.626 240.466 142.763 247.667 146.782 C 262.791 155.221 261.751 181.424 245.968 189.593 C 238.76 193.324 234.5 193.789 207.311 193.812 C 176.055 193.839 176.995 192.387 192.365 216.886 C 216.977 256.115 236.406 286.18 239.058 289.138 C 242.344 292.804 242.113 292.761 260.631 293.155 C 285.92 293.693 286.309 293.308 276.222 277.69 C 274.242 274.624 269.198 266.754 265.013 260.202 C 260.829 253.649 255.732 245.739 253.687 242.624 C 245.953 230.842 246.129 229.074 255.358 225.844 C 286.747 214.856 301.263 184.19 291.885 148.678 C 284.858 122.069 266.844 106.964 241.1 106.092 C 232.642 105.805 159.762 105.644 154.186 105.899 M 128.075 194.365 C 125.068 195.437 123.628 197.634 122.539 202.809 C 121.426 208.099 112.918 254.068 107.815 282.36 C 105.927 292.828 106.849 293.404 125.475 293.393 C 145.045 293.382 144.238 293.941 147.154 278.366 C 148.683 270.2 151.7 254.61 155.017 237.741 C 163.334 195.431 163.313 195.792 157.625 194.212 C 155.274 193.559 129.967 193.69 128.075 194.365" stroke="none" fill="#ffffff" fill-rule="evenodd"></path>
  </g>
</svg>