<svg width="400" height="400" viewBox="0, 0, 400,400" xmlns="http://www.w3.org/2000/svg">
  <defs></defs>
  <g>
    <rect width="100%" height="100%" style="fill: rgb(88, 9, 93);"></rect>
    <path d="M 158.995 105.463 C 150.044 105.873 149.502 106.576 146.321 121.874 C 143.182 136.968 143.129 137.944 145.33 140.241 C 147.204 142.198 146.951 142.187 192.078 142.189 C 243.287 142.19 245.275 142.327 252.476 146.346 C 267.6 154.785 266.56 180.988 250.777 189.157 C 243.569 192.888 239.309 193.353 212.12 193.376 C 180.864 193.403 181.804 191.951 197.174 216.45 C 221.786 255.679 241.215 285.744 243.867 288.702 C 247.153 292.368 246.922 292.325 265.44 292.719 C 290.729 293.257 291.118 292.872 281.031 277.254 C 279.051 274.188 274.007 266.318 269.822 259.766 C 265.638 253.213 260.541 245.303 258.496 242.188 C 250.762 230.406 250.938 228.638 260.167 225.408 C 291.556 214.42 306.072 183.754 296.694 148.242 C 289.667 121.633 271.653 106.528 245.909 105.656 C 237.451 105.369 164.571 105.208 158.995 105.463 M 132.884 193.929 C 129.877 195.001 128.437 197.198 127.348 202.373 C 126.235 207.663 117.727 253.632 112.624 281.924 C 110.736 292.392 111.658 292.968 130.284 292.957 C 149.854 292.946 149.047 293.505 151.963 277.93 C 153.492 269.764 156.509 254.174 159.826 237.305 C 168.143 194.995 168.122 195.356 162.434 193.776 C 160.083 193.123 134.776 193.254 132.884 193.929" stroke="none" fill="#ffffff" fill-rule="evenodd"></path>
  </g>
</svg>